<svg width="124" height="124" viewBox="0 0 124 124" fill="none" xmlns="http://www.w3.org/2000/svg">
<circle cx="62" cy="62" r="61.1299" fill="#00B8DB"/>
<path d="M70.899 48.1482L73.9237 48.1603C74.1545 49.3751 73.7172 50.3529 73.2617 51.428C69.5871 60.1134 58.3203 68.319 54.9434 77.5024C54.3907 79.0026 55.6358 80.4178 53.5889 81.5414C51.0076 77.7636 56.2067 71.453 58.5026 68.2461C59.5108 66.8309 73.0309 50.6627 72.1137 49.9764L64.2483 51.2093C65.6574 59.8887 59.7112 65.7559 52.9998 70.0257C45.8206 74.5992 33.1205 78.2981 37.9856 64.7355C42.4437 52.3026 66.6838 21.7457 78.977 17.0629C80.7445 16.3887 83.4534 15.502 84.5588 17.7796C87.875 24.6065 69.7389 46.8362 70.8929 48.1482H70.899ZM68.9979 48.6827C70.2127 42.7304 75.0959 37.92 78.0599 32.5387C79.6694 29.6173 83.9089 21.8308 82.9614 18.7878C82.3965 16.9718 79.7848 18.5024 78.5944 19.1037C66.8539 25.0741 45.3773 51.2701 40.415 63.5329C36.2606 73.7853 41.0528 74.587 49.4345 70.1229C55.0831 67.1164 65.3476 59.2995 61.8188 52.0596C48.8939 56.7971 48.8211 45.8098 59.4015 48.4154C60.6223 48.7191 61.7095 49.861 62.7238 49.9581C64.4244 50.1282 67.0422 48.5247 68.9979 48.6827Z" fill="white"/>
<path d="M72.7175 63.946L72.1162 66.3694C78.4086 65.3794 77.8012 70.9915 73.9019 73.9311C70.8954 76.1966 67.8342 75.6621 64.5241 76.7007L42.6526 109.481L42.2153 107.239L62.125 77.2717L61.1896 75.1762C62.0521 74.0587 63.4004 74.5021 64.5059 73.6457C66.498 72.0908 68.8 66.1446 70.6099 64.5655C71.3691 63.9034 71.6789 63.788 72.7175 63.946ZM75.147 68.1976C73.5132 66.6427 66.9171 72.1576 66.6499 74.2591C70.2941 74.5203 75.2138 72.3155 75.147 68.1976Z" fill="white"/>
</svg>
